<svg xmlns="http://www.w3.org/2000/svg" width="16" height="16" viewBox="0 0 16 16"><path d="M 3,1 4,1 4,4 5,4 5,1 6,1 6,4 7,4 7,1 13.277344,1 C 14.240094,1 15,1.7598935 15,2.7226562 L 15,6.5 11.095703,6.5 C 10.361041,5.5928163 9.2532404,5 8,5 6.7465137,5 5.63837,5.5925105 4.9042969,6.5 L 1,6.5 1,2.7226562 C 1,2.0205307 1.4058395,1.4304155 1.9980469,1.1601562 L 1.9980469,4 3,4 Z m 8.5,1 c -0.275368,0.0011 -0.498022,0.2246299 -0.498047,0.5 l 0,2 C 11.001978,4.7753701 11.224632,4.998897 11.5,5 l 2,0 c 0.276131,-2.76e-5 0.499972,-0.2238691 0.5,-0.5 l 0,-2 C 13.999972,2.2238691 13.776131,2.0000276 13.5,2 Z m 0.5,1 1,0 0,1 -1,0 z M 8,6 C 9.6627653,6 10.998055,7.3372401 10.998047,9 10.998055,10.66276 9.6627653,12 8,12 6.3372349,12 4.9999917,10.66276 5,9 4.9999917,7.3372401 6.3372349,6 8,6 Z m 0,0.9980469 c -1.0986586,0 -2.0000359,0.903222 -2,2.0019531 4.21e-5,1.098624 0.9013957,2 2,2 1.0986043,0 1.9999573,-0.901376 2,-2 C 10.000036,7.9012689 9.0986585,6.9980469 8,6.9980469 Z M 1,7.5 4.2988281,7.5 C 4.1098586,7.9641916 3.9999974,8.4693273 4,9 c -1.1e-5,2.203221 1.796793,4 4,4 2.203207,0 4.000011,-1.796779 4,-4 3e-6,-0.5306727 -0.107722,-1.0358084 -0.296875,-1.5 L 15,7.5 15,13.277344 C 15,14.240213 14.240094,15 13.277344,15 L 2.7226562,15 C 1.7599052,15 1,14.240213 1,13.277344 Z M 8,8 C 8.5582068,8 9.0000182,8.4417299 9,9 8.9999786,9.5581635 8.5581778,10 8,10 7.4418222,10 7.0000214,9.5581635 7,9 6.9999818,8.4417299 7.4417931,8 8,8 Z" color="#000" font-family="sans-serif" font-weight="400" overflow="visible" style="line-height:normal;text-indent:0;text-align:start;text-decoration-line:none;text-decoration-style:solid;text-decoration-color:#000;text-transform:none;block-progression:tb;isolation:auto;mix-blend-mode:normal"/></svg>